<svg width="20" height="20" viewBox="0 0 20 20" fill="none" xmlns="http://www.w3.org/2000/svg">
<path d="M17.5 1.73858V0.486511H8.33359V1.74495H5.79199V6.49627C7.76188 7.23967 9.16684 9.14428 9.16684 11.3712C9.16684 12.5476 8.3902 14.4763 6.79258 17.2676C6.56949 17.6572 6.3459 18.0359 6.13019 18.3933H12.3338V14.56H13.5837V18.3933H19.9998V1.74706L17.5 1.73858ZM12.2087 13.2592H9.83379V12.0094H12.2087V13.2592ZM12.2087 10.7593H9.83379V9.5094H12.2087V10.7593ZM12.2087 8.31686H9.83379V7.06698H12.2087V8.31686ZM12.2087 5.81686H9.83379V4.56698H12.2087V5.81686ZM16.0837 13.2592H13.7088V12.0094H16.0837V13.2592ZM16.0837 10.7593H13.7088V9.5094H16.0837V10.7593ZM16.0837 8.31686H13.7088V7.06698H16.0837V8.31686ZM16.0837 5.81686H13.7088V4.56698H16.0837V5.81686Z" fill="#03314C" fill-opacity="0.5"/>
<path d="M3.95902 10.1211C3.26973 10.1211 2.70898 10.6819 2.70898 11.3712C2.70898 12.0605 3.26973 12.6212 3.95902 12.6212C4.64832 12.6212 5.20906 12.0605 5.20906 11.3712C5.20906 10.6819 4.64832 10.1211 3.95902 10.1211Z" fill="#03314C" fill-opacity="0.5"/>
<path d="M3.95852 7.41266C1.77578 7.41266 0 9.18848 0 11.3712C0 13.0629 2.51105 17.2834 3.95852 19.5135C5.40594 17.283 7.91703 13.0619 7.91703 11.3712C7.91707 9.1884 6.14129 7.41266 3.95852 7.41266ZM3.95855 13.8711C2.58008 13.8711 1.45863 12.7496 1.45863 11.3712C1.45863 9.9927 2.58008 8.87125 3.95855 8.87125C5.33703 8.87125 6.45848 9.9927 6.45848 11.3712C6.45848 12.7496 5.33703 13.8711 3.95855 13.8711Z" fill="#03314C" fill-opacity="0.5"/>
</svg>
