<svg width="20" height="20" viewBox="0 0 20 20" fill="none" xmlns="http://www.w3.org/2000/svg">
<g clip-path="url(#clip0)">
<path d="M14.2978 5.70267C14.4652 5.87009 14.7368 5.87009 14.904 5.70267L19.8745 0.731999C20.0419 0.564581 20.0419 0.29321 19.8745 0.125563C19.7073 -0.0418544 19.4357 -0.0418544 19.2683 0.125563L14.2978 5.09623C14.1302 5.26365 14.1302 5.53525 14.2978 5.70267Z" fill="#03314C" fill-opacity="0.5"/>
<path d="M18.5931 9.4622L18.048 3.46817L16.5515 4.96463C16.6385 5.52025 16.469 6.10848 16.0409 6.53656C15.3294 7.24802 14.1757 7.24825 13.4642 6.53656C12.7528 5.82509 12.7528 4.67117 13.4642 3.9597C13.8923 3.53163 14.4801 3.36229 15.0355 3.44908L16.5324 1.95219L10.5382 1.40703C10.3024 1.38582 10.0691 1.47007 9.9015 1.63768L0.233688 11.3055C-0.0777816 11.6172 -0.0780104 12.1222 0.233688 12.4337L2.38417 14.5844L3.44528 13.5233L6.4768 16.5548L5.41593 17.6157L7.56641 19.7662C7.87811 20.0779 8.38291 20.0779 8.69438 19.7662L18.3628 10.0984C18.5299 9.93079 18.6141 9.69756 18.5931 9.4622Z" fill="#03314C" fill-opacity="0.5"/>
</g>
<defs>
<clipPath id="clip0">
<rect width="20" height="20" fill="white"/>
</clipPath>
</defs>
</svg>
