<svg width="20" height="13" viewBox="0 0 20 13" fill="none" xmlns="http://www.w3.org/2000/svg">
<path d="M9.99941 8.56236L4.0332 6.72604V8.53265V9.79297C4.0332 11.2108 6.70526 12.3604 10.0012 12.3604C13.297 12.3604 15.9695 11.2108 15.9695 9.79297C15.9695 9.7818 15.9658 9.77059 15.9656 9.75968V6.72604L9.99941 8.56236Z" fill="#03314C" fill-opacity="0.5"/>
<path d="M0 4.61486L2.13141 5.37729L2.31305 4.98828L3.09607 4.92173L3.20772 5.03789L2.53581 5.19722L2.43788 5.48707C2.4377 5.48707 0.920153 8.65967 1.14304 10.2117C1.14304 10.2117 2.09029 10.7768 3.03714 10.2117L3.28877 5.96825V5.61503L4.69821 5.29707L4.59867 5.54221L3.5478 5.88393L4.03383 6.05756L10 7.89388L15.9662 6.05756L20 4.61488L10 0.767639L0 4.61486Z" fill="#03314C" fill-opacity="0.5"/>
</svg>
