<svg width="14" height="20" viewBox="0 0 14 20" fill="none" xmlns="http://www.w3.org/2000/svg">
<path d="M13.3609 4.97781C13.2902 4.71099 13.1466 4.4267 13.0404 4.17779C11.7694 1.10222 8.99214 0 6.74967 0C3.74772 0 0.441419 2.02672 0 6.20428V7.05777C0 7.09339 0.0121924 7.41335 0.029511 7.57341C0.27696 9.56432 1.83726 11.6802 3.00255 13.6712C4.25624 15.8042 5.55713 17.9026 6.84596 20C7.64068 18.6312 8.43254 17.2445 9.20915 15.9112C9.42081 15.5199 9.66651 15.1288 9.87839 14.7553C10.0196 14.5067 10.2894 14.258 10.4127 14.0266C11.6663 11.7156 13.6842 9.38679 13.6842 7.09335V6.15117C13.6843 5.90254 13.3782 5.03142 13.3609 4.97781ZM6.80463 9.26236C5.92221 9.26236 4.95633 8.8181 4.47958 7.59121C4.40855 7.39592 4.41428 7.00453 4.41428 6.96868V6.41757C4.41428 4.85352 5.73327 4.14226 6.88074 4.14226C8.29339 4.14226 9.38594 5.28019 9.38594 6.70252C9.38594 8.12479 8.21728 9.26236 6.80463 9.26236Z" fill="#03314C" fill-opacity="0.5"/>
</svg>
